# xmcd
#
# Track frame offsets:
#	150
#	17078
#	40880
#	54127
#	73827
#	94761
#	109443
#	130727
#	143810
#	156103
#	172951
#
# Disc length: 2490 seconds
# Revision: 0
# Processed by: cddbd v1.5.2PL0 Copyright (c) Steve Scherf et al.
# Submitted via: dBpowerAMP V12.0
#
DISCID=9009b80b
DTITLE=Field and James - Country Girl at Heart
DYEAR=2014
DGENRE=Country
TTITLE0=Country Girl at Heart
TTITLE1=Good Hearted Woman
TTITLE2=One's on the Way
TTITLE3=Help Me Make It Through the Night
TTITLE4=Don't Break My Heart This Morning
TTITLE5=Jackson
TTITLE6=Our Town
TTITLE7=Just Someone I Used to Know
TTITLE8=Last Thing On My Mind
TTITLE9=Heartaches By The Number
TTITLE10=Straight Shootin' Son-of-A-Gun
EXTD=
EXTT0=
EXTT1=
EXTT2=
EXTT3=
EXTT4=
EXTT5=
EXTT6=
EXTT7=
EXTT8=
EXTT9=
EXTT10=
PLAYORDER=
